<svg width="155" height="155" viewBox="0 0 155 155" fill="none" xmlns="http://www.w3.org/2000/svg">
<circle cx="77.5" cy="77.5" r="77.5" fill="#C4C4C4"/>
<path d="M100.999 93.6201C99.7199 90.7573 97.8633 88.1568 95.533 85.9637C93.2097 83.7642 90.4576 82.0106 87.4287 80.7996C87.4015 80.7868 87.3744 80.7804 87.3473 80.7676C91.5724 77.8844 94.319 73.1881 94.319 67.8894C94.319 59.1118 86.7912 52 77.5 52C68.2088 52 60.681 59.1118 60.681 67.8894C60.681 73.1881 63.4276 77.8844 67.6527 80.774C67.6256 80.7868 67.5985 80.7932 67.5713 80.806C64.5331 82.017 61.8068 83.7533 59.467 85.9701C57.1389 88.1649 55.2826 90.7649 54.0008 93.6265C52.7416 96.428 52.0624 99.4316 52.0002 102.475C51.9984 102.543 52.0111 102.611 52.0375 102.675C52.064 102.738 52.1036 102.796 52.1542 102.845C52.2048 102.894 52.2652 102.933 52.3319 102.96C52.3986 102.986 52.4703 103 52.5427 103H56.6118C56.9102 103 57.1476 102.776 57.1544 102.5C57.29 97.554 59.3924 92.9217 63.1089 89.4107C66.9542 85.7779 72.0609 83.7789 77.5 83.7789C82.9391 83.7789 88.0458 85.7779 91.8911 89.4107C95.6076 92.9217 97.71 97.554 97.8456 102.5C97.8524 102.782 98.0898 103 98.3882 103H102.457C102.53 103 102.601 102.986 102.668 102.96C102.735 102.933 102.795 102.894 102.846 102.845C102.896 102.796 102.936 102.738 102.962 102.675C102.989 102.611 103.002 102.543 103 102.475C102.932 99.4121 102.261 96.4328 100.999 93.6201V93.6201ZM77.5 78.9095C74.3871 78.9095 71.4574 77.7627 69.2532 75.6804C67.0491 73.5981 65.8352 70.8303 65.8352 67.8894C65.8352 64.9486 67.0491 62.1808 69.2532 60.0985C71.4574 58.0162 74.3871 56.8693 77.5 56.8693C80.6129 56.8693 83.5426 58.0162 85.7468 60.0985C87.9509 62.1808 89.1648 64.9486 89.1648 67.8894C89.1648 70.8303 87.9509 73.5981 85.7468 75.6804C83.5426 77.7627 80.6129 78.9095 77.5 78.9095Z" fill="#F9FAFB"/>
</svg>
